<svg width="162" height="42" viewBox="0 0 162 42" fill="none" xmlns="http://www.w3.org/2000/svg">
<g clip-path="url(#clip0_4342_599)">
<g clip-path="url(#clip1_4342_599)">
<path d="M0.0230713 16.5181C0.0230713 14.5223 0.660572 12.7389 1.91432 11.1678C3.16808 9.59663 4.76184 8.59875 6.69558 8.17412C7.22683 5.79619 8.43808 3.82167 10.3506 2.293C12.2631 0.764334 14.4306 0 16.8957 0C19.2756 0 21.4219 0.743102 23.3131 2.2293C25.2044 3.7155 26.4156 5.62635 26.9894 7.94057H27.5631C29.9431 7.94057 31.9832 8.7686 33.6831 10.4459C35.3619 12.102 36.2119 14.1402 36.2119 16.4968C36.2119 17.7707 35.9569 18.981 35.4256 20.1062C34.8944 21.2315 34.1719 22.2081 33.2369 23.0149V23.0786C33.2369 24.3313 32.8332 25.4565 32.0468 26.4544C31.2606 27.4523 30.2619 28.0679 29.0718 28.344C28.7743 29.6604 28.1156 30.7856 27.1382 31.6985C26.1606 32.6115 24.9919 33.1848 23.6743 33.3971C24.2906 34.119 24.5881 34.9258 24.5881 35.7962C24.5881 36.8154 24.2268 37.6858 23.5044 38.4289C22.7819 39.1508 21.9106 39.533 20.8906 39.533C19.8707 39.533 18.9994 39.1721 18.2768 38.4289C17.5543 37.7071 17.1931 36.8154 17.1931 35.7962C17.1931 35.3929 17.2568 34.9894 17.4056 34.5861H17.1931C15.9606 34.5861 14.8981 34.1401 14.0056 33.2484C13.1131 32.3567 12.6668 31.2952 12.6668 30.0637C12.6668 29.2145 12.8793 28.4501 13.3044 27.7919C12.1994 27.1762 11.4131 26.3058 10.9243 25.1381H8.20434V25.1169C5.93058 24.9683 3.99683 24.0765 2.40308 22.4205C0.809323 20.7644 0.0230713 18.8111 0.0230713 16.5181ZM2.99808 15.9873C2.99808 17.6858 3.59308 19.1295 4.78308 20.3185C5.97309 21.5075 7.41808 22.1019 9.09684 22.1019C10.1381 22.1019 11.1156 21.8684 12.0081 21.3801C12.2631 22.9512 13.0069 24.2675 14.218 25.3292C15.4294 26.3907 16.8744 26.9002 18.5107 26.9002C20.3594 26.9002 21.9319 26.2421 23.2281 24.947C24.0994 25.9661 25.1831 26.4544 26.5006 26.4544C27.7118 26.4544 28.7319 26.0298 29.6031 25.1805C30.4531 24.3313 30.8782 23.2909 30.8782 22.0808C31.7282 21.5075 32.4081 20.7856 32.8968 19.8727C33.3856 18.981 33.6406 18.0042 33.6406 16.964C33.6406 15.2866 33.0457 13.8429 31.8344 12.6752C30.6232 11.5075 29.1781 10.913 27.4781 10.913C26.2881 10.913 25.2044 11.2315 24.2268 11.8472C24.3544 11.3376 24.3969 10.7644 24.3969 10.1699C24.3969 8.13166 23.6743 6.39067 22.2081 4.94693C20.7418 3.5032 18.9781 2.80255 16.9168 2.80255C14.9194 2.80255 13.1981 3.5032 11.7531 4.86201C10.3081 6.22082 9.54309 7.91934 9.47934 9.89387C9.43684 9.89387 9.37309 9.89387 9.30935 9.89387C9.22435 9.89387 9.16059 9.89387 9.1181 9.89387C7.43934 9.89387 6.01559 10.4883 4.80434 11.6773C3.59309 12.8663 2.99808 14.3312 2.99808 15.9873Z" fill="#DF5237"/>
<path d="M38.3378 33.8914L36.2119 32.8642L42.9241 16.836C43.163 16.2786 43.5532 16 44.0946 16C44.6679 16 45.0581 16.2786 45.265 16.836L52.0012 32.912L50.0186 33.8914L43.9513 19.177H44.2857L38.3378 33.8914ZM35.6625 38.9076C35.3122 38.9076 35.0175 38.7882 34.7787 38.5493C34.5398 38.3105 34.4203 38.0158 34.4203 37.6655V33.7003C34.4203 33.334 34.5398 33.0394 34.7787 32.8165C35.0175 32.5776 35.3122 32.4581 35.6625 32.4581H52.4789C52.8452 32.4581 53.1398 32.5776 53.3627 32.8165C53.6016 33.0394 53.7211 33.334 53.7211 33.7003V37.6655C53.7211 38.0158 53.6016 38.3105 53.3627 38.5493C53.1398 38.7882 52.8452 38.9076 52.4789 38.9076C52.1286 38.9076 51.834 38.7882 51.5951 38.5493C51.3562 38.3105 51.2368 38.0158 51.2368 37.6655V34.6558H36.9046V37.6655C36.9046 38.0158 36.7852 38.3105 36.5463 38.5493C36.3233 38.7882 36.0288 38.9076 35.6625 38.9076ZM62.6166 34.7513C61.2948 34.7513 60.1163 34.4727 59.0813 33.9153C58.062 33.342 57.2579 32.5617 56.6687 31.5743C56.0954 30.5711 55.8088 29.4245 55.8088 28.1346C55.8088 26.8288 56.0794 25.6822 56.6209 24.6949C57.1782 23.6916 57.9426 22.9113 58.9141 22.3539C59.8854 21.7807 61.0001 21.494 62.2583 21.494C63.5004 21.494 64.5673 21.7727 65.4591 22.3301C66.3508 22.8715 67.0277 23.628 67.4895 24.5993C67.9673 25.5548 68.2061 26.6616 68.2061 27.9196C68.2061 28.2221 68.1026 28.477 67.8956 28.684C67.6885 28.8751 67.4257 28.9706 67.1073 28.9706H57.4809V27.0597H67.0357L66.0563 27.7285C66.0403 26.9322 65.8811 26.2236 65.5786 25.6026C65.2759 24.9656 64.8459 24.464 64.2887 24.0977C63.7313 23.7314 63.0544 23.5483 62.2583 23.5483C61.3506 23.5483 60.5702 23.7474 59.9173 24.1455C59.2803 24.5435 58.7946 25.0929 58.4602 25.7937C58.1258 26.4784 57.9586 27.2588 57.9586 28.1346C57.9586 29.0104 58.1576 29.7908 58.5558 30.4755C58.9539 31.1602 59.5033 31.7018 60.204 32.0998C60.9046 32.4979 61.7089 32.697 62.6166 32.697C63.1102 32.697 63.6118 32.6095 64.1215 32.4343C64.647 32.2432 65.0689 32.0282 65.3875 31.7893C65.6263 31.6141 65.8811 31.5266 66.1518 31.5266C66.4385 31.5107 66.6852 31.5902 66.8923 31.7654C67.163 32.0043 67.3063 32.267 67.3223 32.5537C67.3382 32.8403 67.2108 33.0872 66.9401 33.2942C66.3986 33.7242 65.7219 34.0745 64.9097 34.3452C64.1135 34.616 63.3491 34.7513 62.6166 34.7513ZM75.7805 34.8468C75.0161 34.8468 74.3075 34.7672 73.6545 34.608C73.0176 34.4488 72.4363 34.2338 71.9108 33.963C71.4013 33.6764 70.9553 33.3659 70.5731 33.0314C70.3183 32.7926 70.1909 32.5139 70.1909 32.1954C70.1909 31.861 70.3263 31.5902 70.597 31.3832C70.8358 31.1921 71.1225 31.1125 71.4569 31.1444C71.8073 31.1602 72.1019 31.2797 72.3407 31.5027C72.7229 31.8371 73.2007 32.1237 73.7739 32.3626C74.3472 32.5856 75.0082 32.697 75.7566 32.697C76.6325 32.697 77.3252 32.5139 77.8347 32.1476C78.3603 31.7654 78.623 31.2797 78.623 30.6905C78.623 30.165 78.4319 29.7509 78.0497 29.4484C77.6835 29.1299 77.2217 28.9626 76.6643 28.9468H75.3027C74.9524 28.9468 74.6578 28.8512 74.4189 28.6601C74.18 28.469 74.0606 28.2381 74.0606 27.9674C74.0606 27.6966 74.18 27.4738 74.4189 27.2986C74.6578 27.1233 74.9524 27.0358 75.3027 27.0358H76.6404C77.1659 27.0039 77.5561 26.8288 77.8109 26.5103C78.0816 26.1917 78.2169 25.7937 78.2169 25.3159C78.2169 24.7904 77.9941 24.3763 77.5481 24.0738C77.1022 23.7713 76.4573 23.62 75.6133 23.62C74.9285 23.62 74.3075 23.7155 73.7501 23.9066C73.1928 24.0977 72.7309 24.3763 72.3646 24.7426C72.1099 24.9974 71.8312 25.1407 71.5286 25.1726C71.2419 25.1885 70.9633 25.0929 70.6925 24.886C70.4855 24.7268 70.39 24.4958 70.4059 24.1932C70.4378 23.8907 70.5731 23.612 70.812 23.3572C71.3216 22.7998 72.0063 22.3459 72.8662 21.9956C73.7262 21.6453 74.626 21.4701 75.5655 21.4701C76.537 21.4701 77.3969 21.6373 78.1453 21.9718C78.8938 22.3062 79.4829 22.752 79.9129 23.3094C80.3429 23.8668 80.5579 24.4799 80.5579 25.1487C80.5579 25.7061 80.4067 26.1998 80.104 26.6297C79.8174 27.0438 79.4273 27.3702 78.9335 27.6091C78.4558 27.8321 77.9224 27.9435 77.3331 27.9435V27.7524C78.018 27.7524 78.631 27.8877 79.1724 28.1585C79.7298 28.4292 80.1678 28.7954 80.4862 29.2573C80.8047 29.7031 80.9639 30.2208 80.9639 30.8099C80.9639 31.5743 80.7331 32.259 80.2712 32.8642C79.8254 33.4694 79.2123 33.955 78.4319 34.3213C77.6516 34.6716 76.7678 34.8468 75.7805 34.8468ZM85.438 34.6558C85.0876 34.6558 84.793 34.5363 84.5542 34.2974C84.3153 34.0586 84.1959 33.7639 84.1959 33.4136V17.2421C84.1959 16.8758 84.3153 16.5813 84.5542 16.3583C84.793 16.1194 85.0876 16 85.438 16H95.3033C95.6695 16 95.9641 16.1114 96.1871 16.3344C96.41 16.5414 96.5215 16.8202 96.5215 17.1705C96.5215 17.5049 96.41 17.7756 96.1871 17.9826C95.9641 18.1896 95.6695 18.2932 95.3033 18.2932H86.6801V33.4136C86.6801 33.7639 86.5607 34.0586 86.3218 34.2974C86.0829 34.5363 85.7883 34.6558 85.438 34.6558ZM104.834 34.7513C103.544 34.7513 102.405 34.4727 101.418 33.9153C100.43 33.342 99.6502 32.5617 99.0769 31.5743C98.5195 30.5711 98.2408 29.4245 98.2408 28.1346C98.2408 26.8288 98.5195 25.6822 99.0769 24.6949C99.6502 23.6916 100.43 22.9113 101.418 22.3539C102.405 21.7807 103.544 21.494 104.834 21.494C106.108 21.494 107.238 21.7807 108.226 22.3539C109.213 22.9113 109.985 23.6916 110.543 24.6949C111.116 25.6822 111.403 26.8288 111.403 28.1346C111.403 29.4245 111.124 30.5711 110.567 31.5743C110.009 32.5617 109.237 33.342 108.249 33.9153C107.262 34.4727 106.124 34.7513 104.834 34.7513ZM104.834 32.6015C105.662 32.6015 106.394 32.4104 107.031 32.0282C107.668 31.646 108.162 31.1205 108.512 30.4516C108.879 29.7828 109.062 29.0104 109.062 28.1346C109.062 27.2588 108.879 26.4864 108.512 25.8176C108.162 25.1328 107.668 24.5993 107.031 24.2171C106.394 23.8349 105.662 23.6438 104.834 23.6438C104.006 23.6438 103.273 23.8349 102.636 24.2171C101.999 24.5993 101.497 25.1328 101.131 25.8176C100.765 26.4864 100.582 27.2588 100.582 28.1346C100.582 29.0104 100.765 29.7828 101.131 30.4516C101.497 31.1205 101.999 31.646 102.636 32.0282C103.273 32.4104 104.006 32.6015 104.834 32.6015ZM116.247 40.2453C115.897 40.2453 115.602 40.1259 115.363 39.887C115.14 39.664 115.029 39.3774 115.029 39.0271V28.1346C115.045 26.8766 115.339 25.7459 115.913 24.7426C116.486 23.7394 117.266 22.9511 118.253 22.3778C119.241 21.7887 120.355 21.494 121.597 21.494C122.856 21.494 123.979 21.7887 124.965 22.3778C125.953 22.9511 126.733 23.7394 127.306 24.7426C127.896 25.7459 128.19 26.8766 128.19 28.1346C128.19 29.3926 127.92 30.5233 127.378 31.5266C126.852 32.5139 126.129 33.3022 125.204 33.8914C124.281 34.4647 123.238 34.7513 122.075 34.7513C121.136 34.7513 120.268 34.5602 119.471 34.178C118.691 33.7799 118.023 33.2464 117.465 32.5776V39.0271C117.465 39.3774 117.354 39.664 117.131 39.887C116.908 40.1259 116.613 40.2453 116.247 40.2453ZM121.597 32.6015C122.409 32.6015 123.134 32.4104 123.771 32.0282C124.409 31.6301 124.91 31.0966 125.276 30.4278C125.658 29.743 125.849 28.9786 125.849 28.1346C125.849 27.2747 125.658 26.5103 125.276 25.8414C124.91 25.1567 124.409 24.6232 123.771 24.241C123.134 23.8429 122.409 23.6438 121.597 23.6438C120.802 23.6438 120.077 23.8429 119.424 24.241C118.787 24.6232 118.285 25.1567 117.919 25.8414C117.553 26.5103 117.37 27.2747 117.37 28.1346C117.37 28.9786 117.553 29.743 117.919 30.4278C118.285 31.0966 118.787 31.6301 119.424 32.0282C120.077 32.4104 120.802 32.6015 121.597 32.6015ZM137.748 34.7513C136.458 34.7513 135.32 34.4727 134.333 33.9153C133.345 33.342 132.565 32.5617 131.992 31.5743C131.434 30.5711 131.156 29.4245 131.156 28.1346C131.156 26.8288 131.434 25.6822 131.992 24.6949C132.565 23.6916 133.345 22.9113 134.333 22.3539C135.32 21.7807 136.458 21.494 137.748 21.494C139.023 21.494 140.153 21.7807 141.14 22.3539C142.128 22.9113 142.9 23.6916 143.457 24.6949C144.031 25.6822 144.317 26.8288 144.317 28.1346C144.317 29.4245 144.039 30.5711 143.481 31.5743C142.923 32.5617 142.152 33.342 141.164 33.9153C140.176 34.4727 139.038 34.7513 137.748 34.7513ZM137.748 32.6015C138.576 32.6015 139.309 32.4104 139.946 32.0282C140.583 31.646 141.077 31.1205 141.427 30.4516C141.794 29.7828 141.976 29.0104 141.976 28.1346C141.976 27.2588 141.794 26.4864 141.427 25.8176C141.077 25.1328 140.583 24.5993 139.946 24.2171C139.309 23.8349 138.576 23.6438 137.748 23.6438C136.921 23.6438 136.187 23.8349 135.551 24.2171C134.914 24.5993 134.413 25.1328 134.046 25.8176C133.679 26.4864 133.496 27.2588 133.496 28.1346C133.496 29.0104 133.679 29.7828 134.046 30.4516C134.413 31.1205 134.914 31.646 135.551 32.0282C136.187 32.4104 136.921 32.6015 137.748 32.6015ZM153.39 34.7513C152.195 34.7513 151.136 34.4727 150.213 33.9153C149.305 33.342 148.588 32.5617 148.063 31.5743C147.537 30.5711 147.275 29.4245 147.275 28.1346C147.275 26.8288 147.553 25.6822 148.111 24.6949C148.684 23.6916 149.464 22.9113 150.451 22.3539C151.439 21.7807 152.577 21.494 153.867 21.494C155.142 21.494 156.272 21.7807 157.259 22.3539C158.247 22.9113 159.019 23.6916 159.576 24.6949C160.15 25.6822 160.436 26.8288 160.436 28.1346H159.027C159.027 29.4245 158.78 30.5711 158.286 31.5743C157.809 32.5617 157.148 33.342 156.304 33.9153C155.459 34.4727 154.488 34.7513 153.39 34.7513ZM153.82 40.0781C152.688 40.0781 151.63 39.8551 150.643 39.4093C149.655 38.9634 148.819 38.3105 148.134 37.4505C147.928 37.1798 147.848 36.9011 147.896 36.6145C147.959 36.3278 148.119 36.097 148.373 35.9218C148.66 35.7307 148.955 35.667 149.257 35.7307C149.576 35.7943 149.83 35.9537 150.022 36.2084C150.451 36.7498 150.993 37.1719 151.646 37.4744C152.299 37.7769 153.04 37.9283 153.867 37.9283C154.632 37.9283 155.333 37.7452 155.969 37.3789C156.623 37.0126 157.14 36.4712 157.522 35.7546C157.904 35.0379 158.095 34.1621 158.095 33.127V29.735L158.884 27.633L160.436 28.1346V33.2942C160.436 34.5522 160.158 35.6909 159.6 36.71C159.042 37.7452 158.263 38.5652 157.259 39.1704C156.272 39.7756 155.125 40.0781 153.82 40.0781ZM153.867 32.6015C154.695 32.6015 155.428 32.4104 156.065 32.0282C156.702 31.646 157.196 31.1205 157.546 30.4516C157.913 29.7828 158.095 29.0104 158.095 28.1346C158.095 27.2588 157.913 26.4864 157.546 25.8176C157.196 25.1328 156.702 24.5993 156.065 24.2171C155.428 23.8349 154.695 23.6438 153.867 23.6438C153.04 23.6438 152.306 23.8349 151.67 24.2171C151.033 24.5993 150.531 25.1328 150.165 25.8176C149.798 26.4864 149.615 27.2588 149.615 28.1346C149.615 29.0104 149.798 29.7828 150.165 30.4516C150.531 31.1205 151.033 31.646 151.67 32.0282C152.306 32.4104 153.04 32.6015 153.867 32.6015Z" fill="#2B2F35"/>
</g>
</g>
<defs>
<clipPath id="clip0_4342_599">
<rect width="162" height="42" fill="white"/>
</clipPath>
<clipPath id="clip1_4342_599">
<rect width="161.954" height="42.28" fill="white" transform="translate(0.0230713)"/>
</clipPath>
</defs>
</svg>
